<svg width="38" height="38" viewBox="0 0 38 38" fill="none" xmlns="http://www.w3.org/2000/svg">
<path d="M19 0C13.8383 0 13.1939 0.02375 11.1673 0.114C9.14375 0.209 7.76625 0.52725 6.555 0.9975C5.30575 1.482 4.24492 2.13275 3.18883 3.18883C2.13275 4.24492 1.48042 5.30417 0.9975 6.555C0.52725 7.76625 0.207417 9.14375 0.114 11.1673C0.019 13.1939 0 13.8383 0 19C0 24.1617 0.02375 24.8061 0.114 26.8328C0.209 28.8547 0.52725 30.2338 0.9975 31.445C1.47455 32.713 2.22236 33.8618 3.18883 34.8112C4.13769 35.7783 5.28659 36.5262 6.555 37.0025C7.76783 37.4712 9.14533 37.7926 11.1673 37.886C13.1939 37.981 13.8383 38 19 38C24.1617 38 24.8061 37.9763 26.8328 37.886C28.8547 37.791 30.2338 37.4712 31.445 37.0025C32.7127 36.5249 33.8613 35.7771 34.8112 34.8112C35.7786 33.8626 36.5266 32.7136 37.0025 31.445C37.4712 30.2338 37.7926 28.8547 37.886 26.8328C37.981 24.8061 38 24.1617 38 19C38 13.8383 37.9763 13.1939 37.886 11.1673C37.791 9.14533 37.4712 7.76467 37.0025 6.555C36.5252 5.2871 35.7774 4.1384 34.8112 3.18883C33.863 2.22085 32.7139 1.4728 31.445 0.9975C30.2338 0.52725 28.8547 0.207417 26.8328 0.114C24.8061 0.019 24.1617 0 19 0ZM19 3.42C24.0714 3.42 24.6763 3.44533 26.6792 3.53242C28.5317 3.6195 29.5371 3.92667 30.2053 4.1895C31.0951 4.53308 31.7253 4.94475 32.3934 5.60817C33.0568 6.27317 33.4685 6.90492 33.8121 7.79475C34.0718 8.46292 34.3821 9.46833 34.466 11.3208C34.5563 13.3253 34.5768 13.927 34.5768 19C34.5768 24.073 34.5531 24.6763 34.4597 26.6792C34.3631 28.5317 34.0543 29.5371 33.7931 30.2053C33.484 31.0298 32.9982 31.7767 32.3697 32.3934C31.7555 33.0225 31.0092 33.5071 30.1847 33.8121C29.5197 34.0718 28.4984 34.3821 26.6459 34.466C24.6288 34.5563 24.035 34.5768 18.9525 34.5768C13.8684 34.5768 13.2747 34.5531 11.2591 34.4597C9.405 34.3631 8.38375 34.0543 7.71875 33.7931C6.89368 33.4878 6.14757 33.0014 5.53533 32.3697C4.89975 31.7597 4.4123 31.0122 4.11033 30.1847C3.84908 29.5197 3.54192 28.4984 3.44533 26.6459C3.37408 24.6509 3.34875 24.035 3.34875 18.9762C3.34875 13.9159 3.37408 13.2984 3.44533 11.2797C3.54192 9.42717 3.84908 8.4075 4.11033 7.7425C4.44283 6.84 4.86875 6.2225 5.53533 5.55592C6.19875 4.8925 6.81783 4.465 7.71875 4.13408C8.38375 3.87125 9.38283 3.5625 11.2353 3.4675C13.2541 3.39625 13.8478 3.3725 18.9288 3.3725L19 3.42V3.42ZM19 9.2435C17.7188 9.2435 16.4501 9.49586 15.2663 9.98617C14.0826 10.4765 13.0071 11.1951 12.1011 12.1011C11.1951 13.0071 10.4765 14.0826 9.98617 15.2663C9.49586 16.4501 9.2435 17.7188 9.2435 19C9.2435 20.2812 9.49586 21.5499 9.98617 22.7337C10.4765 23.9174 11.1951 24.9929 12.1011 25.8989C13.0071 26.8049 14.0826 27.5235 15.2663 28.0138C16.4501 28.5041 17.7188 28.7565 19 28.7565C21.5876 28.7565 24.0692 27.7286 25.8989 25.8989C27.7286 24.0692 28.7565 21.5876 28.7565 19C28.7565 16.4124 27.7286 13.9308 25.8989 12.1011C24.0692 10.2714 21.5876 9.2435 19 9.2435V9.2435ZM19 25.3333C15.5008 25.3333 12.6667 22.4992 12.6667 19C12.6667 15.5008 15.5008 12.6667 19 12.6667C22.4992 12.6667 25.3333 15.5008 25.3333 19C25.3333 22.4992 22.4992 25.3333 19 25.3333ZM31.4228 8.85875C31.4008 9.44874 31.151 10.0072 30.7258 10.4169C30.3006 10.8265 29.7332 11.0553 29.1428 11.0553C28.5524 11.0553 27.985 10.8265 27.5598 10.4169C27.1347 10.0072 26.8848 9.44874 26.8628 8.85875C26.8628 8.25406 27.103 7.67413 27.5306 7.24655C27.9582 6.81896 28.5381 6.57875 29.1428 6.57875C29.7475 6.57875 30.3275 6.81896 30.755 7.24655C31.1826 7.67413 31.4228 8.25406 31.4228 8.85875V8.85875Z" fill="white"/>
</svg>
